<mxfile host="app.diagrams.net" agent="Mozilla/5.0 (Windows NT 10.0; Win64; x64; rv:132.0) Gecko/20100101 Firefox/132.0" version="24.8.6">
  <diagram name="Страница — 1" id="B7BoDMwRP4bzp1QEvwFb">
    <mxGraphModel dx="593" dy="644" grid="1" gridSize="10" guides="1" tooltips="1" connect="1" arrows="1" fold="1" page="1" pageScale="1" pageWidth="827" pageHeight="1169" math="0" shadow="0">
      <root>
        <mxCell id="0" />
        <mxCell id="1" parent="0" />
        <mxCell id="OIhLDXdUyic4KCReRbb--121" value="" style="rounded=0;whiteSpace=wrap;html=1;" vertex="1" parent="1">
          <mxGeometry x="220" y="200" width="360" height="540" as="geometry" />
        </mxCell>
        <mxCell id="OIhLDXdUyic4KCReRbb--122" value="1" style="rounded=0;whiteSpace=wrap;html=1;" vertex="1" parent="1">
          <mxGeometry x="275" y="230" width="250" height="50" as="geometry" />
        </mxCell>
        <mxCell id="OIhLDXdUyic4KCReRbb--123" value="2" style="rounded=0;whiteSpace=wrap;html=1;" vertex="1" parent="1">
          <mxGeometry x="240" y="330" width="320" height="30" as="geometry" />
        </mxCell>
        <mxCell id="OIhLDXdUyic4KCReRbb--124" value="3" style="rounded=0;whiteSpace=wrap;html=1;" vertex="1" parent="1">
          <mxGeometry x="240" y="370" width="320" height="30" as="geometry" />
        </mxCell>
        <mxCell id="OIhLDXdUyic4KCReRbb--125" value="4" style="rounded=0;whiteSpace=wrap;html=1;" vertex="1" parent="1">
          <mxGeometry x="240" y="410" width="320" height="30" as="geometry" />
        </mxCell>
        <mxCell id="OIhLDXdUyic4KCReRbb--126" value="7" style="rounded=0;whiteSpace=wrap;html=1;" vertex="1" parent="1">
          <mxGeometry x="240" y="570" width="320" height="100" as="geometry" />
        </mxCell>
        <mxCell id="OIhLDXdUyic4KCReRbb--127" value="8" style="rounded=0;whiteSpace=wrap;html=1;" vertex="1" parent="1">
          <mxGeometry x="320" y="690" width="160" height="30" as="geometry" />
        </mxCell>
        <mxCell id="OIhLDXdUyic4KCReRbb--128" value="5" style="rounded=0;whiteSpace=wrap;html=1;" vertex="1" parent="1">
          <mxGeometry x="240" y="450" width="190" height="30" as="geometry" />
        </mxCell>
        <mxCell id="OIhLDXdUyic4KCReRbb--129" value="6" style="rounded=0;whiteSpace=wrap;html=1;" vertex="1" parent="1">
          <mxGeometry x="440" y="450" width="120" height="30" as="geometry" />
        </mxCell>
      </root>
    </mxGraphModel>
  </diagram>
</mxfile>
